<?xml version="1.0" standalone="no"?>
<!DOCTYPE svg PUBLIC "-//W3C//DTD SVG 20010904//EN"
 "http://www.w3.org/TR/2001/REC-SVG-20010904/DTD/svg10.dtd">
<svg version="1.0" xmlns="http://www.w3.org/2000/svg"
 width="1000.000000pt" height="1000.000000pt" viewBox="0 0 1000.000000 1000.000000"
 preserveAspectRatio="xMidYMid meet">
<metadata>
Created by potrace 1.14, written by Peter Selinger 2001-2017
</metadata>
<g transform="translate(0.000000,1000.000000) scale(0.100000,-0.100000)"
fill="#000000" stroke="none">
<path d="M0 5000 l0 -5000 5000 0 5000 0 0 5000 0 5000 -5000 0 -5000 0 0
-5000z m8099 3089 c-410 -451 -713 -946 -920 -1502 -41 -108 -150 -341 -344
-734 -157 -317 -285 -578 -285 -579 0 -2 -133 -272 -296 -601 -162 -329 -296
-602 -297 -608 -1 -7 179 -12 517 -15 l518 -5 43 -165 c56 -219 84 -309 149
-481 207 -552 510 -1043 926 -1501 l85 -93 -93 85 c-499 453 -1057 783 -1667
985 -406 134 -905 224 -1255 225 -63 0 -132 3 -152 6 l-38 7 0 459 0 460 121
241 c67 133 281 557 475 943 195 385 354 704 354 707 0 4 -213 8 -472 9 l-473
3 -3 478 -2 477 67 2 c38 1 88 3 113 4 206 6 431 30 670 73 66 11 116 22 278
62 551 132 1152 420 1625 777 126 94 319 257 377 316 71 73 59 53 -21 -35z
m-6228 44 c13 -16 12 -17 -3 -4 -10 7 -18 15 -18 17 0 8 8 3 21 -13z m59 -58
c13 -14 21 -25 18 -25 -2 0 -15 11 -28 25 -13 14 -21 25 -18 25 2 0 15 -11 28
-25z m133 -113 c466 -394 1004 -685 1629 -881 101 -32 393 -100 523 -122 39
-6 76 -13 83 -15 9 -3 12 -160 12 -744 l0 -740 460 0 c283 0 460 -4 460 -9 0
-6 -79 -176 -176 -378 -97 -202 -194 -405 -216 -450 l-39 -83 -245 0 -244 0
-2 -742 -3 -742 -35 -7 c-19 -4 -96 -19 -170 -34 -622 -122 -1216 -379 -1742
-752 -123 -87 -309 -237 -449 -362 l-84 -75 66 70 c500 525 913 1290 1083
2006 98 414 127 653 131 1068 3 422 -29 699 -131 1128 -154 649 -493 1315
-936 1839 -43 51 -78 94 -78 97 0 13 15 2 103 -72z"/>
</g>
</svg>
